<?xml version="1.0" encoding="UTF-8"?>
<!DOCTYPE svg PUBLIC "-//W3C//DTD SVG 1.1//EN" "http://www.w3.org/Graphics/SVG/1.1/DTD/svg11.dtd">
<svg xmlns="http://www.w3.org/2000/svg" version="1.1" width="52px" height="52px" style="shape-rendering:geometricPrecision; text-rendering:geometricPrecision; image-rendering:optimizeQuality; fill-rule:evenodd; clip-rule:evenodd" xmlns:xlink="http://www.w3.org/1999/xlink">
<g><path style="opacity:0.911" fill="#d0cee6" d="M 50.5,13.5 C 42.0223,18.9093 33.6889,24.576 25.5,30.5C 19.0348,25.7625 12.3681,21.2625 5.5,17C 3.2542,15.7432 1.92087,13.9099 1.5,11.5C 9.58362,9.71695 17.7503,8.38362 26,7.5C 34.7918,7.90708 42.9584,9.90708 50.5,13.5 Z"/></g>
<g><path style="opacity:0.742" fill="#b9b6db" d="M 1.5,11.5 C 1.92087,13.9099 3.2542,15.7432 5.5,17C 12.3681,21.2625 19.0348,25.7625 25.5,30.5C 25.5,35.1667 25.5,39.8333 25.5,44.5C 16.8764,35.2754 8.70977,25.6087 1,15.5C 0.235015,13.9343 0.401682,12.6009 1.5,11.5 Z"/></g>
<g><path style="opacity:0.726" fill="#a39dce" d="M 50.5,13.5 C 43.6258,23.8873 36.1258,33.8873 28,43.5C 27.3292,44.2524 26.4959,44.5858 25.5,44.5C 25.5,39.8333 25.5,35.1667 25.5,30.5C 33.6889,24.576 42.0223,18.9093 50.5,13.5 Z"/></g>
</svg>
